# xmcd
#
# Track frame offsets: 
#        150
#        17983
#        50946
#        84916
#
# Disc length: 1582 seconds
#
# Revision: 0
# Processed by: cddbd v1.5.2PL0 Copyright (c) Steve Scherf et al.
# Submitted via: ExactAudioCopy v0.95b4
#
DISCID=2d062c04
DTITLE=Nils van Gogh - On a freak
DYEAR=2002
DGENRE=
TTITLE0=Radio Edit
TTITLE1=Club.Freak
TTITLE2=CJ Stone RMX
TTITLE3=Dub.Freak
EXTD=
EXTT0=
EXTT1=
EXTT2=
EXTT3=
PLAYORDER=
